<svg xmlns="http://www.w3.org/2000/svg" xmlns:xlink="http://www.w3.org/1999/xlink" width="72.229" height="72.229" viewBox="0 0 72.229 72.229">
  <defs>
    <radialGradient id="radial-gradient" cx="0.5" cy="0.5" r="0.5" gradientUnits="objectBoundingBox">
      <stop offset="0" stop-color="#fff9b5"/>
      <stop offset="1" stop-color="#e5d200"/>
    </radialGradient>
  </defs>
  <g id="Group_21271" data-name="Group 21271" transform="translate(630.76 -11182.24)">
    <path id="Polygon_1" data-name="Polygon 1" d="M11.644,11.521,1.449,46.355l10.2,34.833h0l10.2-34.833-10.2-34.833m0-1.281a1.256,1.256,0,0,1,1.23.921l10.2,34.833a1.281,1.281,0,0,1,0,.72l-10.2,34.833a1.281,1.281,0,0,1-2.459,0L.219,46.714a1.281,1.281,0,0,1,0-.72l10.2-34.833A1.256,1.256,0,0,1,11.644,10.24Z" transform="translate(-606.289 11172)" fill="#e6d42e"/>
    <path id="Polygon_2" data-name="Polygon 2" d="M11.476,1.281,1.281,36.115l10.2,34.833h0l10.2-34.833L11.476,1.281m0-1.281a1.256,1.256,0,0,1,1.23.921L22.9,35.755a1.281,1.281,0,0,1,0,.72l-10.2,34.833a1.281,1.281,0,0,1-2.459,0L.052,36.474a1.281,1.281,0,0,1,0-.72L10.247.921A1.256,1.256,0,0,1,11.476,0Z" transform="translate(-558.531 11206.879) rotate(90)" fill="#eada30"/>
    <circle id="Ellipse_55" data-name="Ellipse 55" cx="12.524" cy="12.524" r="12.524" transform="translate(-607.12 11206.137)" fill="url(#radial-gradient)"/>
  </g>
</svg>
