<svg xmlns="http://www.w3.org/2000/svg" width="298.574" height="298.574" viewBox="0 0 298.574 298.574">
  <g id="Group_20921" data-name="Group 20921" transform="translate(74.223 74.287)">
    <path id="Path_28839" data-name="Path 28839" d="M75,0A75,75,0,1,1,0,75,75,75,0,0,1,75,0Z" transform="translate(0.064)" fill="#02abe6" opacity="0.46" style="mix-blend-mode: lighten;isolation: isolate"/>
    <g id="twitter" transform="translate(34.431 42.615)">
      <path id="Path_3" data-name="Path 3" d="M81.266,55.817a34.735,34.735,0,0,1-9.6,2.631A16.567,16.567,0,0,0,79,49.239a33.294,33.294,0,0,1-10.565,4.033A16.659,16.659,0,0,0,39.612,64.665a17.154,17.154,0,0,0,.386,3.8A47.157,47.157,0,0,1,5.658,51.037,16.665,16.665,0,0,0,10.778,73.3a16.453,16.453,0,0,1-7.527-2.052v.183A16.737,16.737,0,0,0,16.6,87.8a16.629,16.629,0,0,1-4.368.549,14.734,14.734,0,0,1-3.154-.284A16.819,16.819,0,0,0,24.644,99.675,33.475,33.475,0,0,1,3.987,106.78,31.2,31.2,0,0,1,0,106.552a46.9,46.9,0,0,0,25.558,7.476c30.657,0,47.418-25.4,47.418-47.408,0-.736-.025-1.448-.061-2.154A33.235,33.235,0,0,0,81.266,55.817Z" transform="translate(0 -48)" fill="#fff"/>
    </g>
    <circle id="Ellipse_19" data-name="Ellipse 19" cx="2.5" cy="2.5" r="2.5" transform="translate(116.064 67)" fill="#fff"/>
    <circle id="Ellipse_20" data-name="Ellipse 20" cx="1.5" cy="1.5" r="1.5" transform="translate(104.064 96)" fill="#fff"/>
    <circle id="Ellipse_21" data-name="Ellipse 21" cx="1" cy="1" r="1" transform="translate(36.064 90)" fill="#fff"/>
    <circle id="Ellipse_22" data-name="Ellipse 22" cx="1.5" cy="1.5" r="1.5" transform="translate(64.064 44)" fill="#fff"/>
    <circle id="Ellipse_23" data-name="Ellipse 23" cx="4" cy="4" r="4" transform="translate(52.064 120)" fill="#fff"/>
  </g>
</svg>
