<svg xmlns="http://www.w3.org/2000/svg" width="298.574" height="298.574" viewBox="0 0 298.574 298.574">
  <g id="Group_20922" data-name="Group 20922" transform="translate(74.191 74.287)">
    <circle id="Ellipse_11" data-name="Ellipse 11" cx="75" cy="75" r="75" transform="translate(0.096)" fill="#ff001b" opacity="0.648" style="mix-blend-mode: lighten;isolation: isolate"/>
    <path id="Path_28838" data-name="Path 28838" d="M3877.957,836.483c-9.319,0-18.641.143-27.957-.044-7.656-.154-10.533-2.28-12.2-9.578a84.8,84.8,0,0,1-.008-37.416c1.519-6.9,4.388-9.364,11.346-9.433,19.408-.193,38.821.015,58.23.045,5.044.009,8.423,2.582,9.669,7.226a78.46,78.46,0,0,1-.04,41.834c-1.349,4.887-5.014,7.294-10.153,7.292q-14.443-.01-28.886,0Zm-10.44-12.653,26.057-15.655-26.057-15.669Z" transform="translate(-3802.717 -733.169)" fill="#fff"/>
    <circle id="Ellipse_29" data-name="Ellipse 29" cx="2.5" cy="2.5" r="2.5" transform="translate(126.096 65)" fill="#fff"/>
    <circle id="Ellipse_30" data-name="Ellipse 30" cx="1.5" cy="1.5" r="1.5" transform="translate(102.096 110)" fill="#fff"/>
    <circle id="Ellipse_31" data-name="Ellipse 31" cx="1" cy="1" r="1" transform="translate(22.096 65)" fill="#fff"/>
    <circle id="Ellipse_32" data-name="Ellipse 32" cx="1.5" cy="1.5" r="1.5" transform="translate(53.096 20)" fill="#fff"/>
    <circle id="Ellipse_33" data-name="Ellipse 33" cx="4" cy="4" r="4" transform="translate(38.096 119)" fill="#fff"/>
  </g>
</svg>
