<svg xmlns="http://www.w3.org/2000/svg" width="264.574" height="264.574" viewBox="0 0 264.574 264.574">
  <g id="Group_20918" data-name="Group 20918" transform="translate(57.287 57.287)">
    <circle id="Ellipse_11" data-name="Ellipse 11" cx="58" cy="58" r="58" transform="translate(17 17)" fill="#2b85ff" opacity="0.472" style="mix-blend-mode: lighten;isolation: isolate"/>
    <g id="facebook-app-symbol" transform="translate(54.046 36.031)">
      <path id="f_1_" d="M63.985,79.2V43.074h12.12l1.818-14.082H63.985V20c0-4.076,1.127-6.853,6.978-6.853l7.451,0V.551A101.023,101.023,0,0,0,67.555,0C56.806,0,49.447,6.561,49.447,18.608V28.992H37.29V43.074H49.447V79.2Z" transform="translate(-37.29)" fill="#fff"/>
    </g>
    <circle id="Ellipse_43" data-name="Ellipse 43" cx="2.5" cy="2.5" r="2.5" transform="translate(96 27)" fill="#fff"/>
    <circle id="Ellipse_44" data-name="Ellipse 44" cx="1.5" cy="1.5" r="1.5" transform="translate(109 74)" fill="#fff"/>
    <circle id="Ellipse_45" data-name="Ellipse 45" cx="1" cy="1" r="1" transform="translate(54 96)" fill="#fff"/>
    <circle id="Ellipse_46" data-name="Ellipse 46" cx="1.5" cy="1.5" r="1.5" transform="translate(48 51)" fill="#fff"/>
    <circle id="Ellipse_47" data-name="Ellipse 47" cx="4" cy="4" r="4" transform="translate(98 105)" fill="#fff"/>
  </g>
</svg>
