<svg xmlns="http://www.w3.org/2000/svg" xmlns:xlink="http://www.w3.org/1999/xlink" width="16.728" height="22.41" viewBox="0 0 16.728 22.41">
  <defs>
    <clipPath id="clip-path">
      <rect id="Rectangle_16982" data-name="Rectangle 16982" width="16.728" height="22.41" fill="#fff"/>
    </clipPath>
  </defs>
  <g id="Group_20793" data-name="Group 20793" transform="translate(0 0)">
    <g id="Group_20792" data-name="Group 20792" transform="translate(0 0)" clip-path="url(#clip-path)">
      <path id="Path_28738" data-name="Path 28738" d="M7.925,22.41c-.387-.059-.776-.108-1.161-.179A8.049,8.049,0,0,1,3.608,20.9,8.3,8.3,0,0,1,.735,17.448,8.223,8.223,0,0,1,0,13.927a9.477,9.477,0,0,1,1.74-5.165A17.272,17.272,0,0,1,5.033,5.153a.36.36,0,0,0,.13-.462q-.393-1.135-.747-2.283A1.819,1.819,0,0,1,5.683.076,2.281,2.281,0,0,1,6.265.005q2.1-.008,4.2,0a1.844,1.844,0,0,1,1.819,2.5c-.1.324-.21.645-.336,1.033.376-.208.688-.387,1.006-.555a.627.627,0,1,1,.621,1.09c-.3.178-.606.343-.961.543.195.061.341.108.486.151.195.058.395.1.585.175a.611.611,0,0,1,.379.725.6.6,0,0,1-.713.457c-.67-.166-1.331-.372-2-.541a3.611,3.611,0,0,0-.835-.117c-1.225-.013-2.451-.008-3.675,0a.523.523,0,0,0-.3.088A16.335,16.335,0,0,0,2.521,9.888a7.782,7.782,0,0,0-1.258,4.388,6.948,6.948,0,0,0,1.654,4.3,6.824,6.824,0,0,0,4.011,2.4,6.915,6.915,0,0,0,6.106-1.615,6.888,6.888,0,0,0,2.312-4.038,7.081,7.081,0,0,0-.631-4.508c-.288-.595-.655-1.151-1-1.717a.724.724,0,0,1-.113-.641.578.578,0,0,1,.477-.4.589.589,0,0,1,.628.263c.3.459.6.913.867,1.391a9.206,9.206,0,0,1,1,2.76,8.115,8.115,0,0,1,.021,2.978,8.277,8.277,0,0,1-3.539,5.49,8.019,8.019,0,0,1-3.6,1.375c-.222.03-.443.064-.665.1ZM8.377,1.259c-.692,0-1.384,0-2.076,0-.576,0-.828.346-.652.888.193.595.4,1.186.579,1.783A.32.32,0,0,0,6.59,4.2q1.8-.014,3.606,0a.244.244,0,0,0,.277-.2c.191-.611.395-1.217.593-1.826.188-.574-.056-.914-.657-.916-.678,0-1.355,0-2.033,0" transform="translate(0 0)" fill="#fff"/>
      <path id="Path_28739" data-name="Path 28739" d="M14.945,17.181a4.581,4.581,0,0,1-1.7,3.1,22.682,22.682,0,0,1-3.091,2.392.835.835,0,0,1-.983.026,17.412,17.412,0,0,1-3.718-3.029,4.149,4.149,0,0,1-.909-4.214,2.927,2.927,0,0,1,2.573-2.041,2.9,2.9,0,0,1,2.392.633.169.169,0,0,0,.263,0,3.26,3.26,0,0,1,4.121.138,3.626,3.626,0,0,1,1.047,2.995M5.6,16.8A3.038,3.038,0,0,0,6.454,18.9a16.7,16.7,0,0,0,3.09,2.525.254.254,0,0,0,.227-.017,19.939,19.939,0,0,0,2.74-2.168,3.493,3.493,0,0,0,1.18-2.5,1.979,1.979,0,0,0-2.67-2,1.653,1.653,0,0,0-.8.705.685.685,0,0,1-1.094.072,2.324,2.324,0,0,1-.192-.266,1.263,1.263,0,0,0-.684-.516A1.978,1.978,0,0,0,5.6,16.8" transform="translate(-1.279 -3.963)" fill="#fff"/>
    </g>
  </g>
</svg>
