<svg xmlns="http://www.w3.org/2000/svg" xmlns:xlink="http://www.w3.org/1999/xlink" width="23.335" height="33.42" viewBox="0 0 23.335 33.42">
  <defs>
    <clipPath id="clip-path">
      <rect id="Rectangle_17299" data-name="Rectangle 17299" width="23.335" height="33.42" transform="translate(0 0)" fill="#fdf0dd"/>
    </clipPath>
  </defs>
  <g id="Group_21052" data-name="Group 21052" transform="translate(0 0)">
    <g id="Group_21052-2" data-name="Group 21052" clip-path="url(#clip-path)">
      <path id="Path_34996" data-name="Path 34996" d="M0,16.693q0-3.95,0-7.9a8.483,8.483,0,0,1,3.308-6.96A8.311,8.311,0,0,1,8.569.013c2.068-.014,4.137-.022,6.2,0a8.557,8.557,0,0,1,8.485,7.5A8.939,8.939,0,0,1,23.33,8.7q.006,8.016,0,16.031a8.549,8.549,0,0,1-8.5,8.664c-2.1.022-4.2.038-6.3,0A8.542,8.542,0,0,1,0,24.759C0,22.07,0,19.382,0,16.693m21.443.013V12.69c0-1.35.01-2.7-.006-4.049a7.27,7.27,0,0,0-.123-1.351,6.653,6.653,0,0,0-6.5-5.388c-2.09-.023-4.181-.006-6.272,0a5.688,5.688,0,0,0-.794.045A6.675,6.675,0,0,0,1.894,8.656q-.009,8.082,0,16.164a6.674,6.674,0,0,0,6.729,6.711c2.013,0,4.026,0,6.039,0a6.685,6.685,0,0,0,6.784-6.76q0-4.032,0-8.065" fill="#fdf0dd"/>
      <path id="Path_34997" data-name="Path 34997" d="M14.969,12.273a3.3,3.3,0,0,1-3.34,2.737,3.362,3.362,0,0,1-3.283-2.781,4.935,4.935,0,0,1-.061-.758q-.009-1.791,0-3.583a3.385,3.385,0,1,1,6.769.014c0,.619.025,3.546-.083,4.371M13.182,9.768c0-.629.009-1.261,0-1.89a1.511,1.511,0,1,0-3.021,0q-.015,1.84,0,3.682a1.513,1.513,0,1,0,3.023,0c.007-.6,0-1.194,0-1.791" fill="#fdf0dd"/>
      <path id="Path_34998" data-name="Path 34998" d="M11.67,27.021c.944-.826,1.863-1.639,2.792-2.439A.932.932,0,0,1,16.007,25a.884.884,0,0,1-.279.963q-1.7,1.5-3.422,2.991a.9.9,0,0,1-1.289-.014q-1.692-1.467-3.373-2.947a.927.927,0,0,1-.114-1.357A.938.938,0,0,1,8.893,24.6c.919.8,1.832,1.6,2.777,2.425" fill="#fdf0dd"/>
      <path id="Path_34999" data-name="Path 34999" d="M11.67,21.478c.913-.8,1.789-1.577,2.68-2.337a1.586,1.586,0,0,1,.625-.342.893.893,0,0,1,.982.514.919.919,0,0,1-.241,1.113c-.851.756-1.711,1.5-2.567,2.253-.274.241-.545.486-.825.72a.931.931,0,0,1-1.319-.01q-1.664-1.448-3.319-2.905a.935.935,0,0,1-.17-1.376.947.947,0,0,1,1.411-.028c.908.79,1.812,1.583,2.743,2.4" fill="#fdf0dd"/>
    </g>
  </g>
</svg>
